<mxfile host="app.diagrams.net" agent="Mozilla/5.0 (Windows NT 10.0; Win64; x64) AppleWebKit/537.36 (KHTML, like Gecko) Chrome/138.0.0.0 YaBrowser/25.8.0.0 Safari/537.36" version="28.2.7">
  <diagram name="Страница — 1" id="DKWm9qkPGkfj65cZuVqa">
    <mxGraphModel dx="2431" dy="1322" grid="1" gridSize="10" guides="1" tooltips="1" connect="1" arrows="1" fold="1" page="1" pageScale="1" pageWidth="827" pageHeight="1169" math="0" shadow="0">
      <root>
        <mxCell id="0" />
        <mxCell id="1" parent="0" />
        <mxCell id="-8fjRFRZVDfjd2_MCNy9-50" style="edgeStyle=orthogonalEdgeStyle;rounded=0;orthogonalLoop=1;jettySize=auto;html=1;exitX=1;exitY=0.5;exitDx=0;exitDy=0;entryX=0;entryY=0.5;entryDx=0;entryDy=0;fillColor=#dae8fc;strokeColor=#6c8ebf;" edge="1" parent="1" source="-8fjRFRZVDfjd2_MCNy9-1" target="-8fjRFRZVDfjd2_MCNy9-3">
          <mxGeometry relative="1" as="geometry" />
        </mxCell>
        <mxCell id="-8fjRFRZVDfjd2_MCNy9-1" value="Обработать запрос" style="rounded=0;whiteSpace=wrap;html=1;" vertex="1" parent="1">
          <mxGeometry x="410" y="1180" width="130" height="120" as="geometry" />
        </mxCell>
        <mxCell id="-8fjRFRZVDfjd2_MCNy9-76" style="edgeStyle=orthogonalEdgeStyle;rounded=0;orthogonalLoop=1;jettySize=auto;html=1;exitX=1;exitY=0.25;exitDx=0;exitDy=0;entryX=0.5;entryY=1;entryDx=0;entryDy=0;" edge="1" parent="1" source="-8fjRFRZVDfjd2_MCNy9-2" target="-8fjRFRZVDfjd2_MCNy9-39">
          <mxGeometry relative="1" as="geometry" />
        </mxCell>
        <mxCell id="-8fjRFRZVDfjd2_MCNy9-77" style="edgeStyle=orthogonalEdgeStyle;rounded=0;orthogonalLoop=1;jettySize=auto;html=1;exitX=1;exitY=0.5;exitDx=0;exitDy=0;entryX=1;entryY=0.5;entryDx=0;entryDy=0;" edge="1" parent="1" source="-8fjRFRZVDfjd2_MCNy9-2" target="-8fjRFRZVDfjd2_MCNy9-38">
          <mxGeometry relative="1" as="geometry">
            <Array as="points">
              <mxPoint x="1640" y="1320" />
              <mxPoint x="1640" y="785" />
            </Array>
          </mxGeometry>
        </mxCell>
        <mxCell id="-8fjRFRZVDfjd2_MCNy9-78" style="edgeStyle=orthogonalEdgeStyle;rounded=0;orthogonalLoop=1;jettySize=auto;html=1;exitX=1;exitY=0.75;exitDx=0;exitDy=0;entryX=1;entryY=0.25;entryDx=0;entryDy=0;" edge="1" parent="1" source="-8fjRFRZVDfjd2_MCNy9-2" target="-8fjRFRZVDfjd2_MCNy9-37">
          <mxGeometry relative="1" as="geometry">
            <Array as="points">
              <mxPoint x="1690" y="1350" />
              <mxPoint x="1690" y="748" />
            </Array>
          </mxGeometry>
        </mxCell>
        <mxCell id="-8fjRFRZVDfjd2_MCNy9-2" value="Забронировать и получить оплату" style="rounded=0;whiteSpace=wrap;html=1;" vertex="1" parent="1">
          <mxGeometry x="1330" y="1260" width="130" height="120" as="geometry" />
        </mxCell>
        <mxCell id="-8fjRFRZVDfjd2_MCNy9-62" style="edgeStyle=orthogonalEdgeStyle;rounded=0;orthogonalLoop=1;jettySize=auto;html=1;exitX=1;exitY=0.5;exitDx=0;exitDy=0;entryX=0;entryY=0.25;entryDx=0;entryDy=0;fillColor=#f8cecc;strokeColor=#b85450;" edge="1" parent="1" source="-8fjRFRZVDfjd2_MCNy9-3" target="-8fjRFRZVDfjd2_MCNy9-2">
          <mxGeometry relative="1" as="geometry" />
        </mxCell>
        <mxCell id="-8fjRFRZVDfjd2_MCNy9-3" value="Оформить продажу" style="rounded=0;whiteSpace=wrap;html=1;" vertex="1" parent="1">
          <mxGeometry x="800" y="1330" width="130" height="120" as="geometry" />
        </mxCell>
        <mxCell id="-8fjRFRZVDfjd2_MCNy9-10" style="edgeStyle=orthogonalEdgeStyle;rounded=0;orthogonalLoop=1;jettySize=auto;html=1;exitX=1;exitY=0.25;exitDx=0;exitDy=0;entryX=0;entryY=0.5;entryDx=0;entryDy=0;" edge="1" parent="1" source="-8fjRFRZVDfjd2_MCNy9-5" target="-8fjRFRZVDfjd2_MCNy9-38">
          <mxGeometry relative="1" as="geometry">
            <mxPoint x="1450" y="790" as="targetPoint" />
            <Array as="points">
              <mxPoint x="1450" y="790" />
            </Array>
          </mxGeometry>
        </mxCell>
        <mxCell id="-8fjRFRZVDfjd2_MCNy9-11" style="edgeStyle=orthogonalEdgeStyle;rounded=0;orthogonalLoop=1;jettySize=auto;html=1;exitX=1;exitY=0;exitDx=0;exitDy=0;" edge="1" parent="1" source="-8fjRFRZVDfjd2_MCNy9-5" target="-8fjRFRZVDfjd2_MCNy9-37">
          <mxGeometry relative="1" as="geometry">
            <mxPoint x="1430" y="760" as="targetPoint" />
            <Array as="points">
              <mxPoint x="1310" y="760" />
              <mxPoint x="1310" y="760" />
            </Array>
          </mxGeometry>
        </mxCell>
        <mxCell id="-8fjRFRZVDfjd2_MCNy9-12" style="edgeStyle=orthogonalEdgeStyle;rounded=0;orthogonalLoop=1;jettySize=auto;html=1;exitX=1;exitY=0.5;exitDx=0;exitDy=0;entryX=0;entryY=0.5;entryDx=0;entryDy=0;" edge="1" parent="1" source="-8fjRFRZVDfjd2_MCNy9-5" target="-8fjRFRZVDfjd2_MCNy9-39">
          <mxGeometry relative="1" as="geometry">
            <mxPoint x="1460" y="820" as="targetPoint" />
          </mxGeometry>
        </mxCell>
        <mxCell id="-8fjRFRZVDfjd2_MCNy9-5" value="Продажа билетов" style="rounded=0;whiteSpace=wrap;html=1;" vertex="1" parent="1">
          <mxGeometry x="940" y="760" width="130" height="120" as="geometry" />
        </mxCell>
        <mxCell id="-8fjRFRZVDfjd2_MCNy9-6" value="" style="endArrow=classic;html=1;rounded=0;entryX=0.5;entryY=0;entryDx=0;entryDy=0;edgeStyle=orthogonalEdgeStyle;" edge="1" parent="1" source="-8fjRFRZVDfjd2_MCNy9-36" target="-8fjRFRZVDfjd2_MCNy9-5">
          <mxGeometry width="50" height="50" relative="1" as="geometry">
            <mxPoint x="970" y="430" as="sourcePoint" />
            <mxPoint x="1110" y="710" as="targetPoint" />
            <Array as="points">
              <mxPoint x="970" y="596" />
              <mxPoint x="1005" y="596" />
            </Array>
          </mxGeometry>
        </mxCell>
        <mxCell id="-8fjRFRZVDfjd2_MCNy9-9" value="" style="endArrow=classic;html=1;rounded=0;entryX=0.75;entryY=0;entryDx=0;entryDy=0;edgeStyle=orthogonalEdgeStyle;exitX=0.5;exitY=1;exitDx=0;exitDy=0;" edge="1" parent="1" source="-8fjRFRZVDfjd2_MCNy9-35" target="-8fjRFRZVDfjd2_MCNy9-5">
          <mxGeometry width="50" height="50" relative="1" as="geometry">
            <mxPoint x="1070" y="440" as="sourcePoint" />
            <mxPoint x="830" y="700" as="targetPoint" />
            <Array as="points">
              <mxPoint x="1070" y="601" />
              <mxPoint x="1037" y="601" />
            </Array>
          </mxGeometry>
        </mxCell>
        <mxCell id="-8fjRFRZVDfjd2_MCNy9-13" value="" style="endArrow=classic;html=1;rounded=0;entryX=0;entryY=0.75;entryDx=0;entryDy=0;exitX=0.5;exitY=0;exitDx=0;exitDy=0;edgeStyle=orthogonalEdgeStyle;" edge="1" parent="1" source="-8fjRFRZVDfjd2_MCNy9-42" target="-8fjRFRZVDfjd2_MCNy9-5">
          <mxGeometry width="50" height="50" relative="1" as="geometry">
            <mxPoint x="370" y="850" as="sourcePoint" />
            <mxPoint x="830" y="990" as="targetPoint" />
          </mxGeometry>
        </mxCell>
        <mxCell id="-8fjRFRZVDfjd2_MCNy9-14" value="" style="endArrow=classic;html=1;rounded=0;entryX=0;entryY=0.5;entryDx=0;entryDy=0;exitX=1;exitY=0.5;exitDx=0;exitDy=0;" edge="1" parent="1" source="-8fjRFRZVDfjd2_MCNy9-41" target="-8fjRFRZVDfjd2_MCNy9-5">
          <mxGeometry width="50" height="50" relative="1" as="geometry">
            <mxPoint x="370" y="820" as="sourcePoint" />
            <mxPoint x="830" y="990" as="targetPoint" />
          </mxGeometry>
        </mxCell>
        <mxCell id="-8fjRFRZVDfjd2_MCNy9-15" value="" style="endArrow=classic;html=1;rounded=0;entryX=0;entryY=0.25;entryDx=0;entryDy=0;exitX=0.5;exitY=1;exitDx=0;exitDy=0;edgeStyle=orthogonalEdgeStyle;" edge="1" parent="1" source="-8fjRFRZVDfjd2_MCNy9-40" target="-8fjRFRZVDfjd2_MCNy9-5">
          <mxGeometry width="50" height="50" relative="1" as="geometry">
            <mxPoint x="380" y="790" as="sourcePoint" />
            <mxPoint x="830" y="990" as="targetPoint" />
          </mxGeometry>
        </mxCell>
        <mxCell id="-8fjRFRZVDfjd2_MCNy9-16" value="" style="endArrow=classic;html=1;rounded=0;entryX=0.75;entryY=1;entryDx=0;entryDy=0;edgeStyle=orthogonalEdgeStyle;exitX=0.5;exitY=0;exitDx=0;exitDy=0;" edge="1" parent="1" source="-8fjRFRZVDfjd2_MCNy9-43" target="-8fjRFRZVDfjd2_MCNy9-5">
          <mxGeometry width="50" height="50" relative="1" as="geometry">
            <mxPoint x="1140" y="1110" as="sourcePoint" />
            <mxPoint x="830" y="990" as="targetPoint" />
            <Array as="points">
              <mxPoint x="1140" y="930" />
              <mxPoint x="1038" y="930" />
            </Array>
          </mxGeometry>
        </mxCell>
        <mxCell id="-8fjRFRZVDfjd2_MCNy9-17" value="" style="endArrow=classic;html=1;rounded=0;entryX=0.5;entryY=1;entryDx=0;entryDy=0;edgeStyle=orthogonalEdgeStyle;exitX=0.5;exitY=0;exitDx=0;exitDy=0;" edge="1" parent="1" source="-8fjRFRZVDfjd2_MCNy9-44" target="-8fjRFRZVDfjd2_MCNy9-5">
          <mxGeometry width="50" height="50" relative="1" as="geometry">
            <mxPoint x="1050" y="1110" as="sourcePoint" />
            <mxPoint x="830" y="990" as="targetPoint" />
            <Array as="points">
              <mxPoint x="1050" y="995" />
              <mxPoint x="1005" y="995" />
            </Array>
          </mxGeometry>
        </mxCell>
        <mxCell id="-8fjRFRZVDfjd2_MCNy9-18" value="" style="endArrow=classic;html=1;rounded=0;entryX=0.25;entryY=1;entryDx=0;entryDy=0;edgeStyle=orthogonalEdgeStyle;exitX=0.5;exitY=0;exitDx=0;exitDy=0;" edge="1" parent="1" source="-8fjRFRZVDfjd2_MCNy9-45" target="-8fjRFRZVDfjd2_MCNy9-5">
          <mxGeometry width="50" height="50" relative="1" as="geometry">
            <mxPoint x="920" y="1100" as="sourcePoint" />
            <mxPoint x="830" y="990" as="targetPoint" />
            <Array as="points">
              <mxPoint x="920" y="990" />
              <mxPoint x="972" y="990" />
            </Array>
          </mxGeometry>
        </mxCell>
        <mxCell id="-8fjRFRZVDfjd2_MCNy9-19" value="запрос пассажира" style="text;html=1;whiteSpace=wrap;strokeColor=none;fillColor=none;align=center;verticalAlign=middle;rounded=0;rotation=-90;" vertex="1" parent="1">
          <mxGeometry x="1020" y="540" width="130" height="30" as="geometry" />
        </mxCell>
        <mxCell id="-8fjRFRZVDfjd2_MCNy9-20" value="Денежные средства" style="text;html=1;whiteSpace=wrap;strokeColor=none;fillColor=none;align=center;verticalAlign=middle;rounded=0;rotation=-90;" vertex="1" parent="1">
          <mxGeometry x="880" y="540" width="140" height="30" as="geometry" />
        </mxCell>
        <mxCell id="-8fjRFRZVDfjd2_MCNy9-21" value="Подтвержденный билет" style="text;html=1;whiteSpace=wrap;strokeColor=none;fillColor=none;align=center;verticalAlign=middle;rounded=0;" vertex="1" parent="1">
          <mxGeometry x="1070" y="740" width="150" height="30" as="geometry" />
        </mxCell>
        <mxCell id="-8fjRFRZVDfjd2_MCNy9-22" value="Сдача/чек" style="text;html=1;whiteSpace=wrap;strokeColor=none;fillColor=none;align=center;verticalAlign=middle;rounded=0;" vertex="1" parent="1">
          <mxGeometry x="1080" y="770" width="60" height="30" as="geometry" />
        </mxCell>
        <mxCell id="-8fjRFRZVDfjd2_MCNy9-25" value="Обновление информации о занятости мест" style="text;html=1;whiteSpace=wrap;strokeColor=none;fillColor=none;align=center;verticalAlign=middle;rounded=0;" vertex="1" parent="1">
          <mxGeometry x="1070" y="800" width="290" height="30" as="geometry" />
        </mxCell>
        <mxCell id="-8fjRFRZVDfjd2_MCNy9-27" value="Кассир" style="text;html=1;whiteSpace=wrap;strokeColor=none;fillColor=none;align=center;verticalAlign=middle;rounded=0;" vertex="1" parent="1">
          <mxGeometry x="1060" y="910" width="60" height="30" as="geometry" />
        </mxCell>
        <mxCell id="-8fjRFRZVDfjd2_MCNy9-28" value="ПО" style="text;html=1;whiteSpace=wrap;strokeColor=none;fillColor=none;align=center;verticalAlign=middle;rounded=0;" vertex="1" parent="1">
          <mxGeometry x="1000" y="970" width="60" height="30" as="geometry" />
        </mxCell>
        <mxCell id="-8fjRFRZVDfjd2_MCNy9-29" value="БД" style="text;html=1;whiteSpace=wrap;strokeColor=none;fillColor=none;align=center;verticalAlign=middle;rounded=0;" vertex="1" parent="1">
          <mxGeometry x="920" y="970" width="60" height="30" as="geometry" />
        </mxCell>
        <mxCell id="-8fjRFRZVDfjd2_MCNy9-30" value="Расписание рейсов" style="text;html=1;whiteSpace=wrap;strokeColor=none;fillColor=none;align=center;verticalAlign=middle;rounded=0;" vertex="1" parent="1">
          <mxGeometry x="790" y="770" width="130" height="30" as="geometry" />
        </mxCell>
        <mxCell id="-8fjRFRZVDfjd2_MCNy9-31" value="Правила продажи билетов" style="text;html=1;whiteSpace=wrap;strokeColor=none;fillColor=none;align=center;verticalAlign=middle;rounded=0;" vertex="1" parent="1">
          <mxGeometry x="750" y="800" width="180" height="30" as="geometry" />
        </mxCell>
        <mxCell id="-8fjRFRZVDfjd2_MCNy9-32" value="Тарифы и цены" style="text;html=1;whiteSpace=wrap;strokeColor=none;fillColor=none;align=center;verticalAlign=middle;rounded=0;" vertex="1" parent="1">
          <mxGeometry x="790" y="830" width="130" height="30" as="geometry" />
        </mxCell>
        <mxCell id="-8fjRFRZVDfjd2_MCNy9-47" style="edgeStyle=orthogonalEdgeStyle;rounded=0;orthogonalLoop=1;jettySize=auto;html=1;exitX=0.5;exitY=1;exitDx=0;exitDy=0;entryX=0;entryY=0.25;entryDx=0;entryDy=0;fillColor=#ffe6cc;strokeColor=#d79b00;" edge="1" parent="1" source="-8fjRFRZVDfjd2_MCNy9-35" target="-8fjRFRZVDfjd2_MCNy9-1">
          <mxGeometry relative="1" as="geometry">
            <Array as="points">
              <mxPoint x="1070" y="380" />
              <mxPoint x="240" y="380" />
              <mxPoint x="240" y="1210" />
            </Array>
          </mxGeometry>
        </mxCell>
        <mxCell id="-8fjRFRZVDfjd2_MCNy9-35" value="l1" style="text;html=1;whiteSpace=wrap;strokeColor=none;fillColor=none;align=center;verticalAlign=middle;rounded=0;" vertex="1" parent="1">
          <mxGeometry x="1040" y="300" width="60" height="30" as="geometry" />
        </mxCell>
        <mxCell id="-8fjRFRZVDfjd2_MCNy9-59" style="edgeStyle=orthogonalEdgeStyle;rounded=0;orthogonalLoop=1;jettySize=auto;html=1;exitX=1;exitY=0.5;exitDx=0;exitDy=0;entryX=1;entryY=0.25;entryDx=0;entryDy=0;fillColor=#dae8fc;strokeColor=#6c8ebf;" edge="1" parent="1" source="-8fjRFRZVDfjd2_MCNy9-36" target="-8fjRFRZVDfjd2_MCNy9-3">
          <mxGeometry relative="1" as="geometry">
            <Array as="points">
              <mxPoint x="1530" y="405" />
              <mxPoint x="1530" y="1220" />
              <mxPoint x="1060" y="1220" />
              <mxPoint x="1060" y="1360" />
            </Array>
          </mxGeometry>
        </mxCell>
        <mxCell id="-8fjRFRZVDfjd2_MCNy9-36" value="l2" style="text;html=1;whiteSpace=wrap;strokeColor=none;fillColor=none;align=center;verticalAlign=middle;rounded=0;" vertex="1" parent="1">
          <mxGeometry x="940" y="390" width="60" height="30" as="geometry" />
        </mxCell>
        <mxCell id="-8fjRFRZVDfjd2_MCNy9-37" value="O1" style="text;html=1;whiteSpace=wrap;strokeColor=none;fillColor=none;align=center;verticalAlign=middle;rounded=0;" vertex="1" parent="1">
          <mxGeometry x="1440" y="740" width="60" height="30" as="geometry" />
        </mxCell>
        <mxCell id="-8fjRFRZVDfjd2_MCNy9-38" value="O2" style="text;html=1;whiteSpace=wrap;strokeColor=none;fillColor=none;align=center;verticalAlign=middle;rounded=0;" vertex="1" parent="1">
          <mxGeometry x="1470" y="770" width="60" height="30" as="geometry" />
        </mxCell>
        <mxCell id="-8fjRFRZVDfjd2_MCNy9-39" value="O3" style="text;html=1;whiteSpace=wrap;strokeColor=none;fillColor=none;align=center;verticalAlign=middle;rounded=0;" vertex="1" parent="1">
          <mxGeometry x="1470" y="805" width="60" height="30" as="geometry" />
        </mxCell>
        <mxCell id="-8fjRFRZVDfjd2_MCNy9-40" value="С1" style="text;html=1;whiteSpace=wrap;strokeColor=none;fillColor=none;align=center;verticalAlign=middle;rounded=0;" vertex="1" parent="1">
          <mxGeometry x="340" y="680" width="60" height="30" as="geometry" />
        </mxCell>
        <mxCell id="-8fjRFRZVDfjd2_MCNy9-63" style="edgeStyle=orthogonalEdgeStyle;rounded=0;orthogonalLoop=1;jettySize=auto;html=1;exitX=0.5;exitY=1;exitDx=0;exitDy=0;entryX=0.5;entryY=0;entryDx=0;entryDy=0;fillColor=#dae8fc;strokeColor=#6c8ebf;" edge="1" parent="1" source="-8fjRFRZVDfjd2_MCNy9-41" target="-8fjRFRZVDfjd2_MCNy9-3">
          <mxGeometry relative="1" as="geometry">
            <Array as="points">
              <mxPoint x="310" y="1000" />
              <mxPoint x="865" y="1000" />
            </Array>
          </mxGeometry>
        </mxCell>
        <mxCell id="-8fjRFRZVDfjd2_MCNy9-69" style="edgeStyle=orthogonalEdgeStyle;rounded=0;orthogonalLoop=1;jettySize=auto;html=1;exitX=0.5;exitY=1;exitDx=0;exitDy=0;entryX=0.5;entryY=0;entryDx=0;entryDy=0;fillColor=#f8cecc;strokeColor=#b85450;" edge="1" parent="1" source="-8fjRFRZVDfjd2_MCNy9-41" target="-8fjRFRZVDfjd2_MCNy9-2">
          <mxGeometry relative="1" as="geometry">
            <Array as="points">
              <mxPoint x="310" y="1000" />
              <mxPoint x="1395" y="1000" />
            </Array>
          </mxGeometry>
        </mxCell>
        <mxCell id="-8fjRFRZVDfjd2_MCNy9-41" value="С2" style="text;html=1;whiteSpace=wrap;strokeColor=none;fillColor=none;align=center;verticalAlign=middle;rounded=0;" vertex="1" parent="1">
          <mxGeometry x="280" y="805" width="60" height="30" as="geometry" />
        </mxCell>
        <mxCell id="-8fjRFRZVDfjd2_MCNy9-55" style="edgeStyle=orthogonalEdgeStyle;rounded=0;orthogonalLoop=1;jettySize=auto;html=1;exitX=0.5;exitY=1;exitDx=0;exitDy=0;entryX=0.75;entryY=0;entryDx=0;entryDy=0;fillColor=#ffe6cc;strokeColor=#d79b00;" edge="1" parent="1" source="-8fjRFRZVDfjd2_MCNy9-42" target="-8fjRFRZVDfjd2_MCNy9-1">
          <mxGeometry relative="1" as="geometry">
            <Array as="points">
              <mxPoint x="330" y="1055" />
              <mxPoint x="508" y="1055" />
            </Array>
          </mxGeometry>
        </mxCell>
        <mxCell id="-8fjRFRZVDfjd2_MCNy9-42" value="С3" style="text;html=1;whiteSpace=wrap;strokeColor=none;fillColor=none;align=center;verticalAlign=middle;rounded=0;" vertex="1" parent="1">
          <mxGeometry x="300" y="900" width="60" height="30" as="geometry" />
        </mxCell>
        <mxCell id="-8fjRFRZVDfjd2_MCNy9-70" style="edgeStyle=orthogonalEdgeStyle;rounded=0;orthogonalLoop=1;jettySize=auto;html=1;exitX=0.5;exitY=1;exitDx=0;exitDy=0;entryX=0.25;entryY=0;entryDx=0;entryDy=0;fillColor=#f8cecc;strokeColor=#b85450;" edge="1" parent="1" source="-8fjRFRZVDfjd2_MCNy9-43" target="-8fjRFRZVDfjd2_MCNy9-2">
          <mxGeometry relative="1" as="geometry" />
        </mxCell>
        <mxCell id="-8fjRFRZVDfjd2_MCNy9-43" value="М1" style="text;html=1;whiteSpace=wrap;strokeColor=none;fillColor=none;align=center;verticalAlign=middle;rounded=0;" vertex="1" parent="1">
          <mxGeometry x="1110" y="1120" width="60" height="30" as="geometry" />
        </mxCell>
        <mxCell id="-8fjRFRZVDfjd2_MCNy9-57" style="edgeStyle=orthogonalEdgeStyle;rounded=0;orthogonalLoop=1;jettySize=auto;html=1;exitX=0.5;exitY=1;exitDx=0;exitDy=0;entryX=1;entryY=0.25;entryDx=0;entryDy=0;fillColor=#ffe6cc;strokeColor=#d79b00;" edge="1" parent="1" source="-8fjRFRZVDfjd2_MCNy9-44" target="-8fjRFRZVDfjd2_MCNy9-1">
          <mxGeometry relative="1" as="geometry" />
        </mxCell>
        <mxCell id="-8fjRFRZVDfjd2_MCNy9-61" style="edgeStyle=orthogonalEdgeStyle;rounded=0;orthogonalLoop=1;jettySize=auto;html=1;exitX=0.5;exitY=1;exitDx=0;exitDy=0;entryX=1;entryY=0;entryDx=0;entryDy=0;fillColor=#dae8fc;strokeColor=#6c8ebf;" edge="1" parent="1" source="-8fjRFRZVDfjd2_MCNy9-44" target="-8fjRFRZVDfjd2_MCNy9-3">
          <mxGeometry relative="1" as="geometry" />
        </mxCell>
        <mxCell id="-8fjRFRZVDfjd2_MCNy9-71" style="edgeStyle=orthogonalEdgeStyle;rounded=0;orthogonalLoop=1;jettySize=auto;html=1;exitX=0.5;exitY=1;exitDx=0;exitDy=0;entryX=0.75;entryY=0;entryDx=0;entryDy=0;fillColor=#f8cecc;strokeColor=#b85450;" edge="1" parent="1" source="-8fjRFRZVDfjd2_MCNy9-44" target="-8fjRFRZVDfjd2_MCNy9-2">
          <mxGeometry relative="1" as="geometry">
            <Array as="points">
              <mxPoint x="1050" y="1180" />
              <mxPoint x="1428" y="1180" />
            </Array>
          </mxGeometry>
        </mxCell>
        <mxCell id="-8fjRFRZVDfjd2_MCNy9-44" value="М2" style="text;html=1;whiteSpace=wrap;strokeColor=none;fillColor=none;align=center;verticalAlign=middle;rounded=0;" vertex="1" parent="1">
          <mxGeometry x="1020" y="1130" width="60" height="30" as="geometry" />
        </mxCell>
        <mxCell id="-8fjRFRZVDfjd2_MCNy9-72" style="edgeStyle=orthogonalEdgeStyle;rounded=0;orthogonalLoop=1;jettySize=auto;html=1;exitX=0.5;exitY=1;exitDx=0;exitDy=0;entryX=0;entryY=0.75;entryDx=0;entryDy=0;fillColor=#f8cecc;strokeColor=#b85450;" edge="1" parent="1" source="-8fjRFRZVDfjd2_MCNy9-45" target="-8fjRFRZVDfjd2_MCNy9-2">
          <mxGeometry relative="1" as="geometry">
            <Array as="points">
              <mxPoint x="1010" y="1160" />
              <mxPoint x="1010" y="1250" />
              <mxPoint x="1240" y="1250" />
              <mxPoint x="1240" y="1350" />
            </Array>
          </mxGeometry>
        </mxCell>
        <mxCell id="-8fjRFRZVDfjd2_MCNy9-45" value="М3" style="text;html=1;whiteSpace=wrap;strokeColor=none;fillColor=none;align=center;verticalAlign=middle;rounded=0;" vertex="1" parent="1">
          <mxGeometry x="890" y="1130" width="60" height="30" as="geometry" />
        </mxCell>
        <mxCell id="-8fjRFRZVDfjd2_MCNy9-48" value="запрос пассажира" style="text;html=1;whiteSpace=wrap;strokeColor=none;fillColor=none;align=center;verticalAlign=middle;rounded=0;" vertex="1" parent="1">
          <mxGeometry x="570" y="360" width="130" height="30" as="geometry" />
        </mxCell>
        <mxCell id="-8fjRFRZVDfjd2_MCNy9-51" value="Список подходящих рейсов" style="text;html=1;whiteSpace=wrap;strokeColor=none;fillColor=none;align=center;verticalAlign=middle;rounded=0;" vertex="1" parent="1">
          <mxGeometry x="510" y="1220" width="230" height="30" as="geometry" />
        </mxCell>
        <mxCell id="-8fjRFRZVDfjd2_MCNy9-53" style="edgeStyle=orthogonalEdgeStyle;rounded=0;orthogonalLoop=1;jettySize=auto;html=1;exitX=0.25;exitY=0;exitDx=0;exitDy=0;entryX=0.5;entryY=0;entryDx=0;entryDy=0;fillColor=#ffe6cc;strokeColor=#d79b00;" edge="1" parent="1" source="-8fjRFRZVDfjd2_MCNy9-40" target="-8fjRFRZVDfjd2_MCNy9-1">
          <mxGeometry relative="1" as="geometry">
            <mxPoint x="560" y="1200" as="targetPoint" />
            <Array as="points">
              <mxPoint x="355" y="660" />
              <mxPoint x="280" y="660" />
              <mxPoint x="280" y="1110" />
              <mxPoint x="475" y="1110" />
            </Array>
          </mxGeometry>
        </mxCell>
        <mxCell id="-8fjRFRZVDfjd2_MCNy9-54" value="расисание" style="text;html=1;whiteSpace=wrap;strokeColor=none;fillColor=none;align=center;verticalAlign=middle;rounded=0;" vertex="1" parent="1">
          <mxGeometry x="354" y="1090" width="60" height="30" as="geometry" />
        </mxCell>
        <mxCell id="-8fjRFRZVDfjd2_MCNy9-56" value="тарифы" style="text;html=1;whiteSpace=wrap;strokeColor=none;fillColor=none;align=center;verticalAlign=middle;rounded=0;" vertex="1" parent="1">
          <mxGeometry x="410" y="1030" width="60" height="30" as="geometry" />
        </mxCell>
        <mxCell id="-8fjRFRZVDfjd2_MCNy9-58" value="ПО" style="text;html=1;whiteSpace=wrap;strokeColor=none;fillColor=none;align=center;verticalAlign=middle;rounded=0;" vertex="1" parent="1">
          <mxGeometry x="750" y="1190" width="60" height="30" as="geometry" />
        </mxCell>
        <mxCell id="-8fjRFRZVDfjd2_MCNy9-60" value="Денжные срелства" style="text;html=1;whiteSpace=wrap;strokeColor=none;fillColor=none;align=center;verticalAlign=middle;rounded=0;" vertex="1" parent="1">
          <mxGeometry x="1290" y="380" width="170" height="30" as="geometry" />
        </mxCell>
        <mxCell id="-8fjRFRZVDfjd2_MCNy9-64" value="Правила продажи билетов" style="text;html=1;whiteSpace=wrap;strokeColor=none;fillColor=none;align=center;verticalAlign=middle;rounded=0;" vertex="1" parent="1">
          <mxGeometry x="580" y="980" width="190" height="30" as="geometry" />
        </mxCell>
        <mxCell id="-8fjRFRZVDfjd2_MCNy9-65" value="ПО" style="text;html=1;whiteSpace=wrap;strokeColor=none;fillColor=none;align=center;verticalAlign=middle;rounded=0;" vertex="1" parent="1">
          <mxGeometry x="950" y="1225" width="60" height="30" as="geometry" />
        </mxCell>
        <mxCell id="-8fjRFRZVDfjd2_MCNy9-66" style="edgeStyle=orthogonalEdgeStyle;rounded=0;orthogonalLoop=1;jettySize=auto;html=1;exitX=0.5;exitY=1;exitDx=0;exitDy=0;entryX=0.992;entryY=0.167;entryDx=0;entryDy=0;entryPerimeter=0;fillColor=#dae8fc;strokeColor=#6c8ebf;" edge="1" parent="1" source="-8fjRFRZVDfjd2_MCNy9-43" target="-8fjRFRZVDfjd2_MCNy9-3">
          <mxGeometry relative="1" as="geometry">
            <Array as="points">
              <mxPoint x="1090" y="1150" />
              <mxPoint x="1090" y="1350" />
            </Array>
          </mxGeometry>
        </mxCell>
        <mxCell id="-8fjRFRZVDfjd2_MCNy9-67" value="Кассир" style="text;html=1;whiteSpace=wrap;strokeColor=none;fillColor=none;align=center;verticalAlign=middle;rounded=0;" vertex="1" parent="1">
          <mxGeometry x="965" y="1330" width="60" height="30" as="geometry" />
        </mxCell>
        <mxCell id="-8fjRFRZVDfjd2_MCNy9-68" value="Забронированное место, полученные средства" style="text;html=1;whiteSpace=wrap;strokeColor=none;fillColor=none;align=center;verticalAlign=middle;rounded=0;" vertex="1" parent="1">
          <mxGeometry x="930" y="1390" width="340" height="30" as="geometry" />
        </mxCell>
        <mxCell id="-8fjRFRZVDfjd2_MCNy9-73" value="БД" style="text;html=1;whiteSpace=wrap;strokeColor=none;fillColor=none;align=center;verticalAlign=middle;rounded=0;" vertex="1" parent="1">
          <mxGeometry x="1160" y="1225" width="60" height="30" as="geometry" />
        </mxCell>
        <mxCell id="-8fjRFRZVDfjd2_MCNy9-74" value="Кассир" style="text;html=1;whiteSpace=wrap;strokeColor=none;fillColor=none;align=center;verticalAlign=middle;rounded=0;" vertex="1" parent="1">
          <mxGeometry x="1211" y="1180" width="60" height="30" as="geometry" />
        </mxCell>
        <mxCell id="-8fjRFRZVDfjd2_MCNy9-75" value="ПО" style="text;html=1;whiteSpace=wrap;strokeColor=none;fillColor=none;align=center;verticalAlign=middle;rounded=0;" vertex="1" parent="1">
          <mxGeometry x="1280" y="1160" width="60" height="30" as="geometry" />
        </mxCell>
        <mxCell id="-8fjRFRZVDfjd2_MCNy9-79" value="Подтвержденный билет" style="text;html=1;whiteSpace=wrap;strokeColor=none;fillColor=none;align=center;verticalAlign=middle;rounded=0;" vertex="1" parent="1">
          <mxGeometry x="1530" y="720" width="160" height="30" as="geometry" />
        </mxCell>
        <mxCell id="-8fjRFRZVDfjd2_MCNy9-80" value="Сдача/чек" style="text;html=1;whiteSpace=wrap;strokeColor=none;fillColor=none;align=center;verticalAlign=middle;rounded=0;" vertex="1" parent="1">
          <mxGeometry x="1560" y="760" width="60" height="30" as="geometry" />
        </mxCell>
        <mxCell id="-8fjRFRZVDfjd2_MCNy9-81" value="Обновление информации о занятости мест" style="text;html=1;whiteSpace=wrap;strokeColor=none;fillColor=none;align=center;verticalAlign=middle;rounded=0;rotation=-90;" vertex="1" parent="1">
          <mxGeometry x="1340" y="990" width="290" height="30" as="geometry" />
        </mxCell>
      </root>
    </mxGraphModel>
  </diagram>
</mxfile>
